<svg width="20" height="20" viewBox="0 0 20 20" fill="none" xmlns="http://www.w3.org/2000/svg">
<path d="M6.66663 7.5V12.5M9.99996 7.5V12.5M6.66663 10H10.8333C11.61 10 11.9983 10 12.3041 9.87333C12.5065 9.78957 12.6903 9.66675 12.8452 9.5119C13 9.35704 13.1229 9.17318 13.2066 8.97083C13.3333 8.665 13.3333 8.27667 13.3333 7.5" stroke="#443DF6" stroke-width="1.25" stroke-linecap="round"/>
<path d="M18.3333 10C18.3333 14.6025 14.6025 18.3334 9.99996 18.3334C5.39746 18.3334 1.66663 14.6025 1.66663 10C1.66663 5.39752 5.39746 1.66669 9.99996 1.66669C14.6025 1.66669 18.3333 5.39752 18.3333 10Z" stroke="#443DF6" stroke-width="1.25"/>
</svg>
