<svg width="20" height="20" viewBox="0 0 20 20" fill="none" xmlns="http://www.w3.org/2000/svg">
<path d="M13.75 10.8334C12.75 10.8334 11.1917 11.1167 10 11.6667C8.80837 11.1084 7.25004 10.8334 6.25004 10.8334C4.44171 10.8334 0.833374 11.7334 0.833374 13.5417V15.8334H19.1667V13.5417C19.1667 11.7334 15.5584 10.8334 13.75 10.8334ZM10.4167 14.5834H2.08337V13.5417C2.08337 13.0917 4.21671 12.0834 6.25004 12.0834C8.28337 12.0834 10.4167 13.0917 10.4167 13.5417V14.5834ZM17.9167 14.5834H11.6667V13.5417C11.6667 13.1584 11.5 12.825 11.2334 12.525C11.9667 12.275 12.8667 12.0834 13.75 12.0834C15.7834 12.0834 17.9167 13.0917 17.9167 13.5417V14.5834ZM6.25004 10C7.85837 10 9.16671 8.69169 9.16671 7.08335C9.16671 5.47502 7.85837 4.16669 6.25004 4.16669C4.64171 4.16669 3.33337 5.47502 3.33337 7.08335C3.33337 8.69169 4.64171 10 6.25004 10ZM6.25004 5.41669C7.16671 5.41669 7.91671 6.16669 7.91671 7.08335C7.91671 8.00002 7.16671 8.75002 6.25004 8.75002C5.33337 8.75002 4.58337 8.00002 4.58337 7.08335C4.58337 6.16669 5.33337 5.41669 6.25004 5.41669ZM13.75 10C15.3584 10 16.6667 8.69169 16.6667 7.08335C16.6667 5.47502 15.3584 4.16669 13.75 4.16669C12.1417 4.16669 10.8334 5.47502 10.8334 7.08335C10.8334 8.69169 12.1417 10 13.75 10ZM13.75 5.41669C14.6667 5.41669 15.4167 6.16669 15.4167 7.08335C15.4167 8.00002 14.6667 8.75002 13.75 8.75002C12.8334 8.75002 12.0834 8.00002 12.0834 7.08335C12.0834 6.16669 12.8334 5.41669 13.75 5.41669Z" fill="#443DF6"/>
</svg>
