<svg width="20" height="20" viewBox="0 0 20 20" fill="none" xmlns="http://www.w3.org/2000/svg">
<path d="M10.8333 16.6C12.3333 16.4167 13.625 15.7917 14.7083 14.7084C15.7916 13.625 16.4166 12.3334 16.6 10.8334H14.1C13.9166 11.6667 13.5333 12.3667 12.95 12.95C12.3666 13.5334 11.6666 13.9167 10.8333 14.1V16.6ZM8.33329 6.66669H11.6666L14.1666 9.16669H16.6C16.3916 7.54169 15.6583 6.15002 14.3916 5.00002C13.1333 3.88335 11.6666 3.33335 9.99996 3.33335C8.33329 3.33335 6.86663 3.88335 5.60829 5.00002C4.34163 6.15002 3.60829 7.54169 3.39996 9.16669H5.83329L8.33329 6.66669ZM9.16663 16.6V14.1C8.33329 13.9167 7.63329 13.5334 7.04996 12.95C6.46663 12.3667 6.08329 11.6667 5.89996 10.8334H3.39996C3.58329 12.3084 4.20829 13.5834 5.29163 14.6667C6.37496 15.75 7.66663 16.3917 9.16663 16.6ZM9.99996 1.66669C12.2916 1.66669 14.25 2.50002 15.875 4.12502C17.5 5.75002 18.3333 7.70835 18.3333 10C18.3333 12.2917 17.5 14.25 15.875 15.875C14.25 17.5 12.2916 18.3334 9.99996 18.3334C7.70829 18.3334 5.74996 17.5 4.12496 15.875C2.49996 14.25 1.66663 12.2917 1.66663 10C1.66663 7.70835 2.49996 5.75002 4.12496 4.12502C5.74996 2.50002 7.70829 1.66669 9.99996 1.66669Z" fill="#443DF6"/>
</svg>
