<svg width="200" height="200" viewBox="0 0 200 200" fill="none" xmlns="http://www.w3.org/2000/svg">
<g clip-path="url(#clip0_10_317)">
<circle cx="100" cy="100" r="100" fill="#EEFFFA"/>
<rect x="63" y="27" width="74" height="124" rx="4" fill="white"/>
<path fill-rule="evenodd" clip-rule="evenodd" d="M70 19C64.4772 19 60 23.4772 60 29V149C60 154.523 64.4772 159 70 159H130C135.523 159 140 154.523 140 149V29C140 23.4772 135.523 19 130 19H70ZM67 27C64.7909 27 63 28.7909 63 31V147C63 149.209 64.7909 151 67 151H133C135.209 151 137 149.209 137 147V31C137 28.7909 135.209 27 133 27H67Z" fill="#1E1E1E"/>
<g clip-path="url(#clip1_10_317)">
<path d="M69.352 60.123C69.3506 65.4162 70.7441 70.5847 73.3938 75.1402L69.0986 90.7051L85.1477 86.5286C89.5867 88.927 94.5603 90.1837 99.6144 90.184H99.6277C116.312 90.184 129.894 76.7091 129.901 60.1467C129.904 52.121 126.758 44.5742 121.042 38.8964C115.326 33.2191 107.725 30.0908 99.6264 30.0872C82.9399 30.0872 69.3592 43.5613 69.3523 60.123" fill="url(#paint0_linear_10_317)"/>
<path d="M68.2711 60.1132C68.2693 65.5969 69.7128 70.9502 72.457 75.6688L68.0078 91.7917L84.6324 87.4655C89.213 89.9442 94.3703 91.2511 99.6182 91.253H99.6317C116.915 91.253 130.984 77.2934 130.992 60.1381C130.995 51.8241 127.735 44.006 121.815 38.1247C115.894 32.2443 108.021 29.0034 99.6317 29C82.3455 29 68.278 42.9577 68.2711 60.1132ZM78.1714 74.8562L77.5506 73.8782C74.9412 69.7603 73.5639 65.0016 73.5659 60.1152C73.5716 45.8559 85.264 34.2549 99.6415 34.2549C106.604 34.2578 113.148 36.9517 118.069 41.8393C122.991 46.7274 125.699 53.2252 125.697 60.1362C125.691 74.3954 113.998 85.9979 99.6317 85.9979H99.6214C94.9436 85.9955 90.3558 84.7486 86.3549 82.3925L85.4027 81.8321L75.5374 84.3992L78.1714 74.8559V74.8562Z" fill="url(#paint1_linear_10_317)"/>
<path d="M91.7938 47.1059C91.2068 45.811 90.589 45.7848 90.0307 45.7621C89.5736 45.7426 89.051 45.744 88.529 45.744C88.0064 45.744 87.1573 45.9391 86.4397 46.7169C85.7212 47.4953 83.6969 49.3766 83.6969 53.2027C83.6969 57.0291 86.5049 60.7268 86.8963 61.2462C87.2882 61.7646 92.3171 69.8677 100.282 72.9849C106.901 75.5755 108.248 75.0603 109.684 74.9304C111.121 74.801 114.321 73.0497 114.973 71.2336C115.627 69.4179 115.627 67.8614 115.431 67.5362C115.235 67.2121 114.712 67.0175 113.929 66.6288C113.145 66.2398 109.293 64.3583 108.574 64.0988C107.856 63.8395 107.334 63.71 106.811 64.4887C106.288 65.2662 104.788 67.0175 104.331 67.5362C103.874 68.0561 103.416 68.1208 102.633 67.7318C101.849 67.3416 99.3253 66.5213 96.3313 63.8722C94.0019 61.8108 92.4293 59.2651 91.9722 58.4864C91.515 57.7089 91.9232 57.2875 92.3161 56.8999C92.6682 56.5515 93.1 55.9918 93.4921 55.5379C93.8828 55.0837 94.0132 54.7596 94.2745 54.241C94.5361 53.7218 94.4052 53.2677 94.2096 52.8787C94.0132 52.4897 92.4905 48.6435 91.7938 47.1059Z" fill="white"/>
</g>
<path d="M63 110L133.5 27H67C64.7909 27 63 28.7909 63 31V110Z" fill="#F2F2F2" fill-opacity="0.6238"/>
<rect x="82" y="98" width="34" height="2" rx="1" fill="#8D9091"/>
<rect x="68" y="106" width="62" height="2" rx="1" fill="#8D9091"/>
<path fill-rule="evenodd" clip-rule="evenodd" d="M17 63C14.7909 63 13 64.7909 13 67V79C13 81.2091 14.7909 83 17 83H20V87L24 83H49C51.2091 83 53 81.2091 53 79V67C53 64.7909 51.2091 63 49 63H17Z" fill="#443DF6"/>
<rect x="17" y="67" width="32" height="2" rx="1" fill="#D9D9D9"/>
<rect x="17" y="72" width="13" height="2" rx="1" fill="#D9D9D9"/>
<rect x="17" y="77" width="23" height="2" rx="1" fill="#D9D9D9"/>
<rect x="33" y="72" width="13" height="2" rx="1" fill="#D9D9D9"/>
<circle cx="20" cy="96" r="6.5" fill="white" stroke="#1B2124"/>
<circle cx="17.9" cy="93.8999" r="0.7" fill="#1B2124"/>
<circle cx="22.1" cy="93.8999" r="0.7" fill="#1B2124"/>
<path fill-rule="evenodd" clip-rule="evenodd" d="M20 99.5C21.933 99.5 23.5 98.2463 23.5 96.7H16.5C16.5 98.2463 18.067 99.5 20 99.5Z" fill="#1B2124"/>
<path fill-rule="evenodd" clip-rule="evenodd" d="M183 98C185.209 98 187 99.7909 187 102V114C187 116.209 185.209 118 183 118H180V122L176 118H151C148.791 118 147 116.209 147 114V102C147 99.7909 148.791 98 151 98H183Z" fill="#443DF6"/>
<rect width="32" height="2" rx="1" transform="matrix(-1 0 0 1 183 102)" fill="#D9D9D9"/>
<rect width="13" height="2" rx="1" transform="matrix(-1 0 0 1 183 107)" fill="#D9D9D9"/>
<rect width="23" height="2" rx="1" transform="matrix(-1 0 0 1 183 112)" fill="#D9D9D9"/>
<rect width="13" height="2" rx="1" transform="matrix(-1 0 0 1 167 107)" fill="#D9D9D9"/>
<circle cx="7" cy="7" r="6.5" transform="matrix(-1 0 0 1 187 124)" fill="white" stroke="#1B2124"/>
<circle cx="0.7" cy="0.7" r="0.7" transform="matrix(-1 0 0 1 182.8 128.2)" fill="#1B2124"/>
<circle cx="0.7" cy="0.7" r="0.7" transform="matrix(-1 0 0 1 178.6 128.2)" fill="#1B2124"/>
<path fill-rule="evenodd" clip-rule="evenodd" d="M180 134.5C178.067 134.5 176.5 133.246 176.5 131.7H183.5C183.5 133.246 181.933 134.5 180 134.5Z" fill="#1B2124"/>
</g>
<defs>
<linearGradient id="paint0_linear_10_317" x1="3109.22" y1="6091.88" x2="3109.22" y2="30.0872" gradientUnits="userSpaceOnUse">
<stop stop-color="#1FAF38"/>
<stop offset="1" stop-color="#60D669"/>
</linearGradient>
<linearGradient id="paint1_linear_10_317" x1="3217.21" y1="6308.17" x2="3217.21" y2="29" gradientUnits="userSpaceOnUse">
<stop stop-color="#F9F9F9"/>
<stop offset="1" stop-color="white"/>
</linearGradient>
<clipPath id="clip0_10_317">
<rect width="200" height="200" fill="white"/>
</clipPath>
<clipPath id="clip1_10_317">
<rect width="63" height="63" fill="white" transform="translate(68 29)"/>
</clipPath>
</defs>
</svg>
