<svg width="200" height="200" viewBox="0 0 200 200" fill="none" xmlns="http://www.w3.org/2000/svg">
<g clip-path="url(#clip0_10_461)">
<circle cx="100" cy="100" r="100" fill="#EEFFFA"/>
<path d="M62.5 129V132.15C62.5 134.65 61.6264 136.75 59.8792 138.45C58.132 140.15 55.9222 141 53.25 141C50.6806 141 48.4955 140.124 46.6948 138.372C44.8942 136.62 43.9959 134.496 44 132V87L56.95 51C57.5667 49.2 58.6705 47.75 60.2615 46.65C61.8525 45.55 63.6265 45 65.5833 45H133.417C135.369 45 137.143 45.55 138.739 46.65C140.334 47.75 141.437 49.2 142.05 51L155 87V132.15C155 134.65 154.126 136.75 152.379 138.45C150.632 140.15 148.422 141 145.75 141C143.181 141 140.998 140.124 139.201 138.372C137.404 136.62 136.504 134.496 136.5 132V129H62.5ZM61.2667 75H137.733L131.258 57H67.7417L61.2667 75ZM71.75 111C74.3195 111 76.5045 110.124 78.3052 108.372C80.1058 106.62 81.0041 104.496 81 102C81 99.5 80.0997 97.374 78.299 95.622C76.4983 93.87 74.3153 92.996 71.75 93C69.1806 93 66.9955 93.876 65.1948 95.628C63.3942 97.38 62.4959 99.504 62.5 102C62.5 104.5 63.4003 106.626 65.201 108.378C67.0017 110.13 69.1847 111.004 71.75 111ZM127.25 111C129.819 111 132.005 110.124 133.805 108.372C135.606 106.62 136.504 104.496 136.5 102C136.5 99.5 135.6 97.374 133.799 95.622C131.998 93.87 129.815 92.996 127.25 93C124.681 93 122.495 93.876 120.695 95.628C118.894 97.38 117.996 99.504 118 102C118 104.5 118.9 106.626 120.701 108.378C122.502 110.13 124.685 111.004 127.25 111Z" fill="#443DF6"/>
<circle cx="155" cy="146" r="27" fill="#D9D9D9"/>
<path d="M151.5 157.5L169.125 139.875L165.625 136.375L151.5 150.5L144.375 143.375L140.875 146.875L151.5 157.5ZM155 171C151.542 171 148.292 170.343 145.25 169.03C142.208 167.717 139.563 165.936 137.313 163.688C135.063 161.438 133.282 158.792 131.97 155.75C130.658 152.708 130.002 149.458 130 146C130 142.542 130.657 139.292 131.97 136.25C133.283 133.208 135.064 130.563 137.313 128.313C139.563 126.063 142.208 124.282 145.25 122.97C148.292 121.658 151.542 121.002 155 121C158.458 121 161.708 121.657 164.75 122.97C167.792 124.283 170.438 126.064 172.688 128.313C174.938 130.563 176.719 133.208 178.033 136.25C179.346 139.292 180.002 142.542 180 146C180 149.458 179.343 152.708 178.03 155.75C176.717 158.792 174.936 161.438 172.688 163.688C170.438 165.938 167.792 167.719 164.75 169.033C161.708 170.346 158.458 171.002 155 171Z" fill="#1FAF38"/>
</g>
<defs>
<clipPath id="clip0_10_461">
<rect width="200" height="200" fill="white"/>
</clipPath>
</defs>
</svg>
