<svg width="200" height="200" viewBox="0 0 200 200" fill="none" xmlns="http://www.w3.org/2000/svg">
<g clip-path="url(#clip0_10_278)">
<circle cx="100" cy="100" r="100" fill="#EEFFFA"/>
<g clip-path="url(#clip1_10_278)">
<circle cx="86.2985" cy="69.6316" r="46.8514" transform="rotate(-33.1822 86.2985 69.6316)" fill="white"/>
<path d="M68.3333 84.5833V86.0052C68.3333 87.1336 67.9398 88.0816 67.1528 88.8489C66.3657 89.6163 65.3704 90 64.1667 90C63.0093 90 62.025 89.6045 61.2139 88.8137C60.4028 88.0229 59.9982 87.0641 60 85.9375V65.625L65.8333 49.375C66.1111 48.5625 66.6083 47.9079 67.325 47.4114C68.0417 46.9149 68.8407 46.6666 69.7222 46.6666H100.278C101.157 46.6666 101.956 46.9149 102.675 47.4114C103.394 47.9079 103.891 48.5625 104.167 49.375L110 65.625V86.0052C110 87.1336 109.606 88.0816 108.819 88.8489C108.032 89.6163 107.037 90 105.833 90C104.676 90 103.693 89.6045 102.883 88.8137C102.074 88.0229 101.669 87.0641 101.667 85.9375V84.5833H68.3333ZM67.7778 60.2083H102.222L99.3056 52.0833H70.6944L67.7778 60.2083ZM72.5 76.4583C73.6574 76.4583 74.6417 76.0629 75.4528 75.272C76.2639 74.4812 76.6685 73.5225 76.6667 72.3958C76.6667 71.2673 76.2611 70.3077 75.45 69.5168C74.6389 68.726 73.6556 68.3315 72.5 68.3333C71.3426 68.3333 70.3583 68.7287 69.5472 69.5195C68.7361 70.3104 68.3315 71.2691 68.3333 72.3958C68.3333 73.5243 68.7389 74.4839 69.55 75.2748C70.3611 76.0656 71.3444 76.4601 72.5 76.4583ZM97.5 76.4583C98.6574 76.4583 99.6417 76.0629 100.453 75.272C101.264 74.4812 101.669 73.5225 101.667 72.3958C101.667 71.2673 101.261 70.3077 100.45 69.5168C99.6389 68.726 98.6556 68.3315 97.5 68.3333C96.3426 68.3333 95.3583 68.7287 94.5472 69.5195C93.7361 70.3104 93.3315 71.2691 93.3333 72.3958C93.3333 73.5243 93.7389 74.4839 94.55 75.2748C95.3611 76.0656 96.3444 76.4601 97.5 76.4583Z" fill="#443DF6"/>
<path d="M64.9036 26.853C43.2149 39.7118 34.5149 66.7873 43.5123 89.9999C51.9854 90.0116 60.5833 87.8387 68.4444 83.1782C90.1331 70.3194 98.8154 43.2127 89.818 20C81.3449 19.9884 72.7647 22.1924 64.9036 26.853Z" fill="#F2F2F2" fill-opacity="0.62381"/>
<rect x="109.634" y="110.352" width="8.2679" height="82.679" rx="4.13395" transform="rotate(-33.1822 109.634 110.352)" fill="#8D9091"/>
<rect x="116.377" y="125.699" width="13.7798" height="66.1432" rx="6.88992" transform="rotate(-33.1822 116.377 125.699)" fill="#1E1E1E"/>
<path fill-rule="evenodd" clip-rule="evenodd" d="M116.465 115.763C141.943 99.1021 149.09 64.9422 132.43 39.4646C115.769 13.987 81.6088 6.83957 56.1313 23.5003C30.6537 40.1611 23.5062 74.321 40.167 99.7986C56.8278 125.276 90.9877 132.424 116.465 115.763ZM111.94 108.843C133.596 94.6815 139.671 65.6456 125.51 43.9896C111.348 22.3337 82.3123 16.2584 60.6563 30.42C39.0004 44.5817 32.925 73.6176 47.0867 95.2736C61.2484 116.93 90.2843 123.005 111.94 108.843Z" fill="#1B2124"/>
</g>
</g>
<defs>
<clipPath id="clip0_10_278">
<rect width="200" height="200" fill="white"/>
</clipPath>
<clipPath id="clip1_10_278">
<rect width="110.239" height="184.65" fill="white" transform="translate(10 53.6674) rotate(-33.1822)"/>
</clipPath>
</defs>
</svg>
