<svg width="200" height="200" viewBox="0 0 200 200" fill="none" xmlns="http://www.w3.org/2000/svg">
<g clip-path="url(#clip0_10_407)">
<circle cx="100" cy="100" r="100" fill="#EEFFFA"/>
<rect x="63" y="27" width="74" height="124" rx="4" fill="white"/>
<rect x="63" y="27" width="74" height="124" rx="4" fill="white"/>
<path fill-rule="evenodd" clip-rule="evenodd" d="M70 19C64.4772 19 60 23.4772 60 29V149C60 154.523 64.4772 159 70 159H130C135.523 159 140 154.523 140 149V29C140 23.4772 135.523 19 130 19H70ZM67 27C64.7909 27 63 28.7909 63 31V147C63 149.209 64.7909 151 67 151H133C135.209 151 137 149.209 137 147V31C137 28.7909 135.209 27 133 27H67Z" fill="#1E1E1E"/>
<g clip-path="url(#clip1_10_407)">
<path d="M69.352 60.123C69.3506 65.4162 70.7441 70.5847 73.3938 75.1402L69.0986 90.7051L85.1477 86.5286C89.5867 88.927 94.5603 90.1837 99.6144 90.184H99.6277C116.312 90.184 129.894 76.7091 129.901 60.1467C129.904 52.121 126.758 44.5742 121.042 38.8964C115.326 33.2191 107.725 30.0908 99.6264 30.0872C82.9399 30.0872 69.3592 43.5613 69.3523 60.123" fill="url(#paint0_linear_10_407)"/>
<path d="M68.2711 60.1132C68.2693 65.5969 69.7128 70.9502 72.457 75.6688L68.0078 91.7917L84.6324 87.4655C89.213 89.9442 94.3703 91.2511 99.6182 91.253H99.6317C116.915 91.253 130.984 77.2934 130.992 60.1381C130.995 51.8241 127.735 44.006 121.815 38.1247C115.894 32.2443 108.021 29.0034 99.6317 29C82.3455 29 68.278 42.9577 68.2711 60.1132ZM78.1714 74.8562L77.5506 73.8782C74.9412 69.7603 73.5639 65.0016 73.5659 60.1152C73.5716 45.8559 85.264 34.2549 99.6415 34.2549C106.604 34.2578 113.148 36.9517 118.069 41.8393C122.991 46.7274 125.699 53.2252 125.697 60.1362C125.691 74.3954 113.998 85.9979 99.6317 85.9979H99.6214C94.9436 85.9955 90.3558 84.7486 86.3549 82.3925L85.4027 81.8321L75.5374 84.3992L78.1714 74.8559V74.8562Z" fill="url(#paint1_linear_10_407)"/>
<path d="M91.7939 47.1059C91.2069 45.811 90.5891 45.7848 90.0309 45.7621C89.5737 45.7426 89.0512 45.744 88.5291 45.744C88.0065 45.744 87.1575 45.9391 86.4398 46.7169C85.7214 47.4953 83.697 49.3766 83.697 53.2027C83.697 57.0291 86.505 60.7268 86.8964 61.2462C87.2883 61.7646 92.3172 69.8677 100.282 72.9849C106.901 75.5755 108.248 75.0603 109.685 74.9304C111.121 74.801 114.321 73.0497 114.974 71.2336C115.627 69.4179 115.627 67.8614 115.431 67.5362C115.235 67.2121 114.712 67.0175 113.929 66.6288C113.145 66.2398 109.293 64.3583 108.574 64.0988C107.856 63.8395 107.334 63.71 106.811 64.4887C106.289 65.2662 104.788 67.0175 104.331 67.5362C103.874 68.0561 103.416 68.1208 102.633 67.7318C101.849 67.3416 99.3254 66.5213 96.3315 63.8722C94.002 61.8108 92.4294 59.2651 91.9723 58.4864C91.5152 57.7089 91.9233 57.2875 92.3162 56.8999C92.6683 56.5515 93.1001 55.9918 93.4923 55.5379C93.883 55.0837 94.0134 54.7596 94.2746 54.241C94.5362 53.7218 94.4053 53.2677 94.2097 52.8787C94.0134 52.4897 92.4907 48.6435 91.7939 47.1059Z" fill="white"/>
</g>
<path d="M63 110L133.5 27H67C64.7909 27 63 28.7909 63 31V110Z" fill="#F2F2F2" fill-opacity="0.6238"/>
<rect x="82" y="98" width="34" height="2" rx="1" fill="#8D9091"/>
<rect x="68" y="106" width="62" height="2" rx="1" fill="#8D9091"/>
<path fill-rule="evenodd" clip-rule="evenodd" d="M70 19C64.4772 19 60 23.4772 60 29V149C60 154.523 64.4772 159 70 159H130C135.523 159 140 154.523 140 149V29C140 23.4772 135.523 19 130 19H70ZM67 27C64.7909 27 63 28.7909 63 31V147C63 149.209 64.7909 151 67 151H133C135.209 151 137 149.209 137 147V31C137 28.7909 135.209 27 133 27H67Z" fill="#1E1E1E"/>
<g clip-path="url(#clip2_10_407)">
<path d="M69.352 60.123C69.3506 65.4162 70.7441 70.5847 73.3938 75.1402L69.0986 90.7051L85.1477 86.5286C89.5867 88.927 94.5603 90.1837 99.6144 90.184H99.6277C116.312 90.184 129.894 76.7091 129.901 60.1467C129.904 52.121 126.758 44.5742 121.042 38.8964C115.326 33.2191 107.725 30.0908 99.6264 30.0872C82.9399 30.0872 69.3592 43.5613 69.3523 60.123" fill="url(#paint2_linear_10_407)"/>
<path d="M68.2711 60.1132C68.2693 65.5969 69.7128 70.9502 72.457 75.6688L68.0078 91.7917L84.6324 87.4655C89.213 89.9442 94.3703 91.2511 99.6182 91.253H99.6317C116.915 91.253 130.984 77.2934 130.992 60.1381C130.995 51.8241 127.735 44.006 121.815 38.1247C115.894 32.2443 108.021 29.0034 99.6317 29C82.3455 29 68.278 42.9577 68.2711 60.1132ZM78.1714 74.8562L77.5506 73.8782C74.9412 69.7603 73.5639 65.0016 73.5659 60.1152C73.5716 45.8559 85.264 34.2549 99.6415 34.2549C106.604 34.2578 113.148 36.9517 118.069 41.8393C122.991 46.7274 125.699 53.2252 125.697 60.1362C125.691 74.3954 113.998 85.9979 99.6317 85.9979H99.6214C94.9436 85.9955 90.3558 84.7486 86.3549 82.3925L85.4027 81.8321L75.5374 84.3992L78.1714 74.8559V74.8562Z" fill="url(#paint3_linear_10_407)"/>
<path d="M91.7939 47.1059C91.2069 45.811 90.5891 45.7848 90.0309 45.7621C89.5737 45.7426 89.0512 45.744 88.5291 45.744C88.0065 45.744 87.1575 45.9391 86.4398 46.7169C85.7214 47.4953 83.697 49.3766 83.697 53.2027C83.697 57.0291 86.505 60.7268 86.8964 61.2462C87.2883 61.7646 92.3172 69.8677 100.282 72.9849C106.901 75.5755 108.248 75.0603 109.685 74.9304C111.121 74.801 114.321 73.0497 114.974 71.2336C115.627 69.4179 115.627 67.8614 115.431 67.5362C115.235 67.2121 114.712 67.0175 113.929 66.6288C113.145 66.2398 109.293 64.3583 108.574 64.0988C107.856 63.8395 107.334 63.71 106.811 64.4887C106.289 65.2662 104.788 67.0175 104.331 67.5362C103.874 68.0561 103.416 68.1208 102.633 67.7318C101.849 67.3416 99.3254 66.5213 96.3315 63.8722C94.002 61.8108 92.4294 59.2651 91.9723 58.4864C91.5152 57.7089 91.9233 57.2875 92.3162 56.8999C92.6683 56.5515 93.1001 55.9918 93.4923 55.5379C93.883 55.0837 94.0134 54.7596 94.2746 54.241C94.5362 53.7218 94.4053 53.2677 94.2097 52.8787C94.0134 52.4897 92.4907 48.6435 91.7939 47.1059Z" fill="white"/>
</g>
<path d="M63 110L133.5 27H67C64.7909 27 63 28.7909 63 31V110Z" fill="#F2F2F2" fill-opacity="0.6238"/>
<rect x="68" y="98" width="62" height="2" rx="1" fill="#8D9091"/>
<rect x="68" y="106" width="62" height="2" rx="1" fill="#8D9091"/>
<rect x="68" y="116" width="62" height="2" rx="1" fill="#8D9091"/>
<rect x="68" y="124" width="62" height="2" rx="1" fill="#8D9091"/>
<circle cx="139.5" cy="151.5" r="24.75" fill="#D9D9D9"/>
<path d="M136.292 162.042L152.448 145.885L149.24 142.677L136.292 155.625L129.76 149.094L126.552 152.302L136.292 162.042ZM139.5 174.417C136.33 174.417 133.351 173.815 130.562 172.611C127.774 171.407 125.349 169.775 123.286 167.714C121.224 165.651 119.591 163.226 118.389 160.438C117.187 157.649 116.585 154.67 116.583 151.5C116.583 148.33 117.185 145.351 118.389 142.563C119.593 139.774 121.225 137.349 123.286 135.286C125.349 133.224 127.774 131.592 130.562 130.389C133.351 129.187 136.33 128.585 139.5 128.583C142.67 128.583 145.649 129.185 148.437 130.389C151.226 131.593 153.651 133.226 155.713 135.286C157.776 137.349 159.409 139.774 160.613 142.563C161.817 145.351 162.418 148.33 162.417 151.5C162.417 154.67 161.815 157.649 160.611 160.438C159.407 163.226 157.774 165.651 155.713 167.714C153.651 169.776 151.226 171.409 148.437 172.613C145.649 173.817 142.67 174.418 139.5 174.417Z" fill="#1FAF38"/>
</g>
<defs>
<linearGradient id="paint0_linear_10_407" x1="3109.22" y1="6091.88" x2="3109.22" y2="30.0872" gradientUnits="userSpaceOnUse">
<stop stop-color="#1FAF38"/>
<stop offset="1" stop-color="#60D669"/>
</linearGradient>
<linearGradient id="paint1_linear_10_407" x1="3217.21" y1="6308.17" x2="3217.21" y2="29" gradientUnits="userSpaceOnUse">
<stop stop-color="#F9F9F9"/>
<stop offset="1" stop-color="white"/>
</linearGradient>
<linearGradient id="paint2_linear_10_407" x1="3109.22" y1="6091.88" x2="3109.22" y2="30.0872" gradientUnits="userSpaceOnUse">
<stop stop-color="#1FAF38"/>
<stop offset="1" stop-color="#60D669"/>
</linearGradient>
<linearGradient id="paint3_linear_10_407" x1="3217.21" y1="6308.17" x2="3217.21" y2="29" gradientUnits="userSpaceOnUse">
<stop stop-color="#F9F9F9"/>
<stop offset="1" stop-color="white"/>
</linearGradient>
<clipPath id="clip0_10_407">
<rect width="200" height="200" fill="white"/>
</clipPath>
<clipPath id="clip1_10_407">
<rect width="63" height="63" fill="white" transform="translate(68 29)"/>
</clipPath>
<clipPath id="clip2_10_407">
<rect width="63" height="63" fill="white" transform="translate(68 29)"/>
</clipPath>
</defs>
</svg>
