<svg width="40" height="40" viewBox="0 0 40 40" fill="none" xmlns="http://www.w3.org/2000/svg">
<path d="M36.6751 11.6667H38.3418V28.3333H36.6751V33.3333C36.6751 33.7754 36.4995 34.1993 36.187 34.5118C35.8744 34.8244 35.4505 35 35.0085 35H5.00846C4.56644 35 4.14251 34.8244 3.82995 34.5118C3.51739 34.1993 3.3418 33.7754 3.3418 33.3333V6.66667C3.3418 6.22464 3.51739 5.80072 3.82995 5.48816C4.14251 5.17559 4.56644 5 5.00846 5H35.0085C35.4505 5 35.8744 5.17559 36.187 5.48816C36.4995 5.80072 36.6751 6.22464 36.6751 6.66667V11.6667ZM33.3418 28.3333H23.3418C21.1317 28.3333 19.012 27.4554 17.4492 25.8926C15.8864 24.3298 15.0085 22.2101 15.0085 20C15.0085 17.7899 15.8864 15.6702 17.4492 14.1074C19.012 12.5446 21.1317 11.6667 23.3418 11.6667H33.3418V8.33333H6.67513V31.6667H33.3418V28.3333ZM35.0085 25V15H23.3418C22.0157 15 20.7439 15.5268 19.8063 16.4645C18.8686 17.4021 18.3418 18.6739 18.3418 20C18.3418 21.3261 18.8686 22.5979 19.8063 23.5355C20.7439 24.4732 22.0157 25 23.3418 25H35.0085ZM23.3418 18.3333H28.3418V21.6667H23.3418V18.3333Z" fill="#443DF6"/>
</svg>
