<svg width="40" height="40" viewBox="0 0 40 40" fill="none" xmlns="http://www.w3.org/2000/svg">
<path d="M10.1833 9.3667L3.75 15.7167V24.4L10 30.6334H36.25V9.3667H10.1833ZM8.025 18.125C8.3451 18.1234 8.65848 18.2168 8.92543 18.3934C9.19238 18.5701 9.40089 18.822 9.52453 19.1172C9.64817 19.4125 9.68138 19.7378 9.61995 20.052C9.55851 20.3661 9.4052 20.6549 9.17944 20.8819C8.95368 21.1088 8.66563 21.2636 8.35181 21.3267C8.03798 21.3897 7.71249 21.3582 7.4166 21.2361C7.12071 21.114 6.86773 20.9068 6.68971 20.6407C6.5117 20.3747 6.41667 20.0618 6.41667 19.7417C6.41557 19.5298 6.45636 19.3198 6.53669 19.1237C6.61703 18.9276 6.73532 18.7493 6.88478 18.599C7.03424 18.4488 7.21191 18.3296 7.40759 18.2483C7.60326 18.1669 7.81309 18.125 8.025 18.125Z" stroke="#443DF6" stroke-width="2" stroke-linecap="round" stroke-linejoin="round"/>
<path d="M16 14.8C16 14.3575 16.391 14 16.875 14H19.0625C21.2363 14 23 15.6125 23 17.6C23 19.07 22.0375 20.3325 20.6566 20.8925L22.0621 24.1025C22.2426 24.5125 22.0238 24.9775 21.5754 25.1425C21.127 25.3075 20.6184 25.1075 20.4379 24.6975L18.9066 21.2H17.75V24.4C17.75 24.8425 17.359 25.2 16.875 25.2C16.391 25.2 16 24.8425 16 24.4V14.8ZM17.75 19.6H19.0625C20.2711 19.6 21.25 18.705 21.25 17.6C21.25 16.495 20.2711 15.6 19.0625 15.6H17.75V19.6ZM24.75 17.2H26.9375C28.6301 17.2 30 18.4525 30 20C30 21.5475 28.6301 22.8 26.9375 22.8H25.625V25.2C25.625 25.6425 25.234 26 24.75 26C24.266 26 23.875 25.6425 23.875 25.2V18C23.875 17.5575 24.266 17.2 24.75 17.2ZM26.9375 21.2C27.6621 21.2 28.25 20.6625 28.25 20C28.25 19.3375 27.6621 18.8 26.9375 18.8H25.625V21.2H26.9375Z" fill="#443DF6"/>
</svg>
