<svg width="40" height="40" viewBox="0 0 40 40" fill="none" xmlns="http://www.w3.org/2000/svg">
<path d="M24.3332 13.3333H34.9998C35.8839 13.3333 36.7317 13.6845 37.3569 14.3096C37.982 14.9347 38.3332 15.7826 38.3332 16.6666V20.175C38.3332 20.6083 38.2482 21.0416 38.0832 21.4433L32.9248 33.9683C32.7993 34.274 32.5856 34.5354 32.3111 34.7194C32.0366 34.9034 31.7136 35.0016 31.3832 35.0016H3.33317C2.89114 35.0016 2.46722 34.826 2.15466 34.5135C1.8421 34.2009 1.6665 33.777 1.6665 33.335V16.6666C1.6665 16.2246 1.8421 15.8007 2.15466 15.4881C2.46722 15.1756 2.89114 15 3.33317 15H9.1365C9.40348 14.9998 9.66652 14.9356 9.90348 14.8126C10.1404 14.6896 10.3444 14.5115 10.4982 14.2933L19.5865 1.4183C19.7014 1.25548 19.8708 1.13923 20.0641 1.09061C20.2573 1.042 20.4616 1.06423 20.6398 1.1533L23.6632 2.66663C24.5137 3.09184 25.1931 3.79515 25.5888 4.6598C25.9844 5.52445 26.0724 6.4984 25.8382 7.41996L24.3332 13.3333ZM11.6665 17.6466V31.6666H30.2665L34.9998 20.175V16.6666H24.3332C23.8255 16.6666 23.3246 16.5505 22.8686 16.3274C22.4126 16.1043 22.0135 15.7799 21.702 15.3791C21.3904 14.9783 21.1745 14.5116 21.0707 14.0147C20.9669 13.5177 20.978 13.0036 21.1032 12.5116L22.6082 6.5983C22.6549 6.41408 22.6372 6.21944 22.5581 6.04665C22.4789 5.87387 22.3431 5.73331 22.1732 5.6483L21.0715 5.09663L13.2215 16.2166C12.8048 16.8066 12.2715 17.2916 11.6665 17.6466ZM8.33317 18.3333H4.99984V31.6666H8.33317V18.3333Z" fill="#443DF6"/>
</svg>
